<svg width="40" height="40" viewBox="0 0 40 40" fill="none" xmlns="http://www.w3.org/2000/svg">
<path d="M5 14.1666H25C29.714 14.1666 32.071 14.1666 33.5355 15.6311C35 17.0956 35 19.4526 35 24.1666V25.8333C35 30.5473 35 32.9043 33.5355 34.3688C32.071 35.8333 29.714 35.8333 25 35.8333H15C10.2859 35.8333 7.92893 35.8333 6.46447 34.3688C5 32.9043 5 30.5473 5 25.8333V14.1666Z" stroke="#6C6C6C" stroke-width="2" stroke-linecap="round" stroke-linejoin="round"/>
<path d="M25 14.1638V6.85046C25 5.36823 23.7983 4.16663 22.3162 4.16663C21.8893 4.16663 21.4687 4.26843 21.089 4.46359L6.2705 12.0821C5.4904 12.4831 5 13.2867 5 14.1638" stroke="#6C6C6C" stroke-width="2" stroke-linecap="round" stroke-linejoin="round"/>
<path d="M29.1673 25.8333C29.6275 25.8333 30.0007 25.4601 30.0007 25C30.0007 24.5398 29.6275 24.1666 29.1673 24.1666M29.1673 25.8333C28.7072 25.8333 28.334 25.4601 28.334 25C28.334 24.5398 28.7072 24.1666 29.1673 24.1666M29.1673 25.8333V24.1666" stroke="#6C6C6C" stroke-width="2" stroke-linecap="round" stroke-linejoin="round"/>
</svg>
